<svg width="1110" height="897" viewBox="0 0 1110 897" fill="none" xmlns="http://www.w3.org/2000/svg">
<path d="M1096.09 253.127C1085.3 167.87 1050.92 78.6471 967.099 28.7956C921.354 1.60382 885.838 -4.62756 837.536 -1.22859C728.715 5.56935 671.605 67.3171 632.396 145.493C622.167 165.604 618.189 160.221 613.643 144.643C594.607 76.3802 558.238 10.6677 475.273 -6.61036C352.53 -31.8194 274.11 23.9798 217.568 134.446C209.897 149.458 207.624 155.123 200.805 137.278C151.935 5.56804 -21.3835 8.68424 -110.316 68.7327C-248.686 161.921 -282.781 369.542 -282.213 532.692C-281.645 679.414 -233.627 904.312 -43.2609 896.665C39.4203 893.266 120.965 835.201 154.776 753.06C161.311 737.481 164.153 722.468 169.267 744.844C225.525 996.935 542.327 934.054 603.131 750.226C611.939 723.884 617.053 729.549 623.303 750.226C655.694 854.744 773.323 921.591 879.871 896.099C1104.05 842.849 1132.46 539.207 1096.38 253.127H1096.09Z" fill="#99CEFF"/>
</svg>
