<svg width="558" height="897" viewBox="0 0 558 897" fill="none" xmlns="http://www.w3.org/2000/svg">
<path d="M639.874 766.926C598.378 992.738 399.423 964.166 212.457 958.405C126.236 955.871 -134.041 925.916 -33.5266 777.525C3.12885 723.607 106.871 691.809 185.715 664.159C244.963 643.651 209.691 637.891 185.715 636.278C80.5897 629.365 -83.3227 618.074 -34.9098 481.896C-2.404 390.189 133.613 334.658 234.82 312.537C284.155 301.708 255.798 293.412 239.891 287.882C182.717 268.297 123.469 253.319 108.945 192.258C92.5773 124.284 131.539 54.4666 171.883 24.2815C270.784 -49.6833 500.168 -79.6377 603.449 0.778931C685.059 64.3749 678.604 200.092 679.757 292.03C681.601 450.79 668.692 610.701 640.105 767.387L639.874 766.926Z" fill="#4F8A03"/>
</svg>
